<svg id="visual" viewBox="0 0 900 600" width="900" height="600" xmlns="http://www.w3.org/2000/svg" xmlns:xlink="http://www.w3.org/1999/xlink" version="1.1"><rect x="0" y="0" width="900" height="600" fill="#fafafa"></rect><defs><linearGradient id="grad1_0" x1="33.3%" y1="0%" x2="100%" y2="100%"><stop offset="20%" stop-color="#fafafa" stop-opacity="1"></stop><stop offset="80%" stop-color="#fafafa" stop-opacity="1"></stop></linearGradient></defs><defs><linearGradient id="grad2_0" x1="0%" y1="0%" x2="66.7%" y2="100%"><stop offset="20%" stop-color="#fafafa" stop-opacity="1"></stop><stop offset="80%" stop-color="#fafafa" stop-opacity="1"></stop></linearGradient></defs><g transform="translate(900, 0)"><path d="M0 378.6C-45.9 360.9 -91.9 343.3 -133.9 323.4C-176 303.4 -214.3 281.3 -252.4 252.4C-290.6 223.6 -328.7 188.1 -349.8 144.9C-370.8 101.7 -374.7 50.8 -378.6 0L0 0Z" fill="#3cfa70"></path></g><g transform="translate(0, 600)"><path d="M0 -378.6C36.3 -345.4 72.7 -312.3 124.4 -300.3C176.1 -288.3 243.2 -297.4 267.7 -267.7C292.2 -238 274.1 -169.3 285.5 -118.2C296.9 -67.2 337.7 -33.6 378.6 0L0 0Z" fill="#3cfa70"></path></g></svg>