<svg id="visual" viewBox="0 0 900 600" width="900" height="600" xmlns="http://www.w3.org/2000/svg" xmlns:xlink="http://www.w3.org/1999/xlink" version="1.1"><rect x="0" y="0" width="900" height="600" fill="#ffffff"></rect><path d="M0 114L30 121.8C60 129.7 120 145.3 180 148.8C240 152.3 300 143.7 360 127.7C420 111.7 480 88.3 540 88C600 87.7 660 110.3 720 130.5C780 150.7 840 168.3 870 177.2L900 186L900 0L870 0C840 0 780 0 720 0C660 0 600 0 540 0C480 0 420 0 360 0C300 0 240 0 180 0C120 0 60 0 30 0L0 0Z" fill="#2FB344" stroke-linecap="round" stroke-linejoin="miter"></path></svg>