<?xml version="1.0" encoding="UTF-8"?>
<!DOCTYPE svg PUBLIC "-//W3C//DTD SVG 1.1//EN" "http://www.w3.org/Graphics/SVG/1.1/DTD/svg11.dtd">
<!-- Creator: CorelDRAW X7 -->
<svg xmlns="http://www.w3.org/2000/svg" xml:space="preserve" width="6.4in" height="4in" version="1.1" style="shape-rendering:geometricPrecision; text-rendering:geometricPrecision; image-rendering:optimizeQuality; fill-rule:evenodd; clip-rule:evenodd"
viewBox="0 0 6400 4000"
 xmlns:xlink="http://www.w3.org/1999/xlink">
 <defs>
  <style type="text/css">
   <![CDATA[
    .fil1 {fill:#2FB344}
    .fil0 {fill:white}
   ]]>
  </style>
 </defs>
 <g id="Layer_x0020_1">
  <metadata id="CorelCorpID_0Corel-Layer"/>
  <rect class="fil0" x="-1971" y="-1428" width="9375" height="6250"/>
  <path class="fil1" d="M-1971 93l313 44c312,42 937,130 1562,36 625,-94 1250,-369 1875,-337 625,31 1250,368 1875,541 625,174 1250,185 1875,30 625,-155 1250,-474 1563,-634l312 -159 0 -1042 -312 0c-313,0 -938,0 -1563,0 -625,0 -1250,0 -1875,0 -625,0 -1250,0 -1875,0 -625,0 -1250,0 -1875,0 -625,0 -1250,0 -1562,0l-313 0 0 1521z"/>
 </g>
</svg>
