<svg id="visual" viewBox="0 0 900 600" width="900" height="600" xmlns="http://www.w3.org/2000/svg" xmlns:xlink="http://www.w3.org/1999/xlink" version="1.1"><rect x="0" y="0" width="900" height="600" fill="#ffffff"></rect><path d="M0 501L11.5 501.8C23 502.7 46 504.3 69 502.8C92 501.3 115 496.7 138.2 497C161.3 497.3 184.7 502.7 207.8 501.2C231 499.7 254 491.3 277 492C300 492.7 323 502.3 346 502.5C369 502.7 392 493.3 415.2 491.8C438.3 490.3 461.7 496.7 484.8 498.8C508 501 531 499 554 500.2C577 501.3 600 505.7 623 502.8C646 500 669 490 692.2 489.2C715.3 488.3 738.7 496.7 761.8 495.3C785 494 808 483 831 483.8C854 484.7 877 497.3 888.5 503.7L900 510L900 601L888.5 601C877 601 854 601 831 601C808 601 785 601 761.8 601C738.7 601 715.3 601 692.2 601C669 601 646 601 623 601C600 601 577 601 554 601C531 601 508 601 484.8 601C461.7 601 438.3 601 415.2 601C392 601 369 601 346 601C323 601 300 601 277 601C254 601 231 601 207.8 601C184.7 601 161.3 601 138.2 601C115 601 92 601 69 601C46 601 23 601 11.5 601L0 601Z" fill="#95fa69"></path><path d="M0 526L11.5 526.2C23 526.3 46 526.7 69 526.5C92 526.3 115 525.7 138.2 523.7C161.3 521.7 184.7 518.3 207.8 515.2C231 512 254 509 277 506.3C300 503.7 323 501.3 346 499.3C369 497.3 392 495.7 415.2 498.2C438.3 500.7 461.7 507.3 484.8 511C508 514.7 531 515.3 554 517.7C577 520 600 524 623 522C646 520 669 512 692.2 506.3C715.3 500.7 738.7 497.3 761.8 498.8C785 500.3 808 506.7 831 509.3C854 512 877 511 888.5 510.5L900 510L900 601L888.5 601C877 601 854 601 831 601C808 601 785 601 761.8 601C738.7 601 715.3 601 692.2 601C669 601 646 601 623 601C600 601 577 601 554 601C531 601 508 601 484.8 601C461.7 601 438.3 601 415.2 601C392 601 369 601 346 601C323 601 300 601 277 601C254 601 231 601 207.8 601C184.7 601 161.3 601 138.2 601C115 601 92 601 69 601C46 601 23 601 11.5 601L0 601Z" fill="#7dee66"></path><path d="M0 542L11.5 541.5C23 541 46 540 69 540.2C92 540.3 115 541.7 138.2 538.2C161.3 534.7 184.7 526.3 207.8 523.3C231 520.3 254 522.7 277 522.2C300 521.7 323 518.3 346 520C369 521.7 392 528.3 415.2 532.5C438.3 536.7 461.7 538.3 484.8 535.5C508 532.7 531 525.3 554 524.3C577 523.3 600 528.7 623 530.8C646 533 669 532 692.2 531.3C715.3 530.7 738.7 530.3 761.8 528.7C785 527 808 524 831 521.8C854 519.7 877 518.3 888.5 517.7L900 517L900 601L888.5 601C877 601 854 601 831 601C808 601 785 601 761.8 601C738.7 601 715.3 601 692.2 601C669 601 646 601 623 601C600 601 577 601 554 601C531 601 508 601 484.8 601C461.7 601 438.3 601 415.2 601C392 601 369 601 346 601C323 601 300 601 277 601C254 601 231 601 207.8 601C184.7 601 161.3 601 138.2 601C115 601 92 601 69 601C46 601 23 601 11.5 601L0 601Z" fill="#64e164"></path><path d="M0 553L11.5 552.3C23 551.7 46 550.3 69 549.5C92 548.7 115 548.3 138.2 550.2C161.3 552 184.7 556 207.8 558.2C231 560.3 254 560.7 277 560.8C300 561 323 561 346 559.7C369 558.3 392 555.7 415.2 552.5C438.3 549.3 461.7 545.7 484.8 546.2C508 546.7 531 551.3 554 551.7C577 552 600 548 623 546.2C646 544.3 669 544.7 692.2 546.5C715.3 548.3 738.7 551.7 761.8 551.8C785 552 808 549 831 549.2C854 549.3 877 552.7 888.5 554.3L900 556L900 601L888.5 601C877 601 854 601 831 601C808 601 785 601 761.8 601C738.7 601 715.3 601 692.2 601C669 601 646 601 623 601C600 601 577 601 554 601C531 601 508 601 484.8 601C461.7 601 438.3 601 415.2 601C392 601 369 601 346 601C323 601 300 601 277 601C254 601 231 601 207.8 601C184.7 601 161.3 601 138.2 601C115 601 92 601 69 601C46 601 23 601 11.5 601L0 601Z" fill="#48d462"></path><path d="M0 561L11.5 560.8C23 560.7 46 560.3 69 561.7C92 563 115 566 138.2 567.5C161.3 569 184.7 569 207.8 570C231 571 254 573 277 572.8C300 572.7 323 570.3 346 568.5C369 566.7 392 565.3 415.2 564.2C438.3 563 461.7 562 484.8 562.8C508 563.7 531 566.3 554 566.5C577 566.7 600 564.3 623 563.7C646 563 669 564 692.2 564.8C715.3 565.7 738.7 566.3 761.8 568.5C785 570.7 808 574.3 831 574.7C854 575 877 572 888.5 570.5L900 569L900 601L888.5 601C877 601 854 601 831 601C808 601 785 601 761.8 601C738.7 601 715.3 601 692.2 601C669 601 646 601 623 601C600 601 577 601 554 601C531 601 508 601 484.8 601C461.7 601 438.3 601 415.2 601C392 601 369 601 346 601C323 601 300 601 277 601C254 601 231 601 207.8 601C184.7 601 161.3 601 138.2 601C115 601 92 601 69 601C46 601 23 601 11.5 601L0 601Z" fill="#24c75f"></path></svg>