<?xml version="1.0" standalone="no"?><svg xmlns="http://www.w3.org/2000/svg" viewBox="0 0 1440 320"><path fill="#ffffff" fill-opacity="1" d="M0,160L30,138.7C60,117,120,75,180,80C240,85,300,139,360,181.3C420,224,480,256,540,266.7C600,277,660,267,720,266.7C780,267,840,277,900,288C960,299,1020,309,1080,314.7C1140,320,1200,320,1260,288C1320,256,1380,192,1410,160L1440,128L1440,0L1410,0C1380,0,1320,0,1260,0C1200,0,1140,0,1080,0C1020,0,960,0,900,0C840,0,780,0,720,0C660,0,600,0,540,0C480,0,420,0,360,0C300,0,240,0,180,0C120,0,60,0,30,0L0,0Z"></path></svg>