<?xml version="1.0" standalone="no"?><svg xmlns="http://www.w3.org/2000/svg" viewBox="0 0 1440 320"><path fill="#0099ff" fill-opacity="1" d="M0,128L20,149.3C40,171,80,213,120,234.7C160,256,200,256,240,224C280,192,320,128,360,96C400,64,440,64,480,101.3C520,139,560,213,600,250.7C640,288,680,288,720,277.3C760,267,800,245,840,213.3C880,181,920,139,960,144C1000,149,1040,203,1080,240C1120,277,1160,299,1200,272C1240,245,1280,171,1320,154.7C1360,139,1400,181,1420,202.7L1440,224L1440,0L1420,0C1400,0,1360,0,1320,0C1280,0,1240,0,1200,0C1160,0,1120,0,1080,0C1040,0,1000,0,960,0C920,0,880,0,840,0C800,0,760,0,720,0C680,0,640,0,600,0C560,0,520,0,480,0C440,0,400,0,360,0C320,0,280,0,240,0C200,0,160,0,120,0C80,0,40,0,20,0L0,0Z"></path></svg>