<?xml version="1.0" standalone="no"?><svg xmlns="http://www.w3.org/2000/svg" viewBox="0 0 1440 320"><path fill="#ffffff" fill-opacity="1" d="M0,32L26.7,37.3C53.3,43,107,53,160,96C213.3,139,267,213,320,218.7C373.3,224,427,160,480,165.3C533.3,171,587,245,640,277.3C693.3,309,747,299,800,272C853.3,245,907,203,960,208C1013.3,213,1067,267,1120,277.3C1173.3,288,1227,256,1280,234.7C1333.3,213,1387,203,1413,197.3L1440,192L1440,320L1413.3,320C1386.7,320,1333,320,1280,320C1226.7,320,1173,320,1120,320C1066.7,320,1013,320,960,320C906.7,320,853,320,800,320C746.7,320,693,320,640,320C586.7,320,533,320,480,320C426.7,320,373,320,320,320C266.7,320,213,320,160,320C106.7,320,53,320,27,320L0,320Z"></path></svg>