<svg id="visual" viewBox="0 0 900 600" width="900" height="600" xmlns="http://www.w3.org/2000/svg" xmlns:xlink="http://www.w3.org/1999/xlink" version="1.1"><rect x="0" y="0" width="900" height="600" fill="#ffffff"></rect><path d="M0 146L30 150.2C60 154.3 120 162.7 180 153.7C240 144.7 300 118.3 360 121.3C420 124.3 480 156.7 540 173.3C600 190 660 191 720 176.2C780 161.3 840 130.7 870 115.3L900 100L900 0L870 0C840 0 780 0 720 0C660 0 600 0 540 0C480 0 420 0 360 0C300 0 240 0 180 0C120 0 60 0 30 0L0 0Z" fill="#00fd26" stroke-linecap="round" stroke-linejoin="miter"></path></svg>